<svg width="50" height="65" viewBox="0 0 50 65" fill="none" xmlns="http://www.w3.org/2000/svg">
<path d="M11 42.5H37.5C38.8807 42.5 40 43.6193 40 45V52.5C40 53.8807 38.8807 55 37.5 55H17.5C13.9101 55 11 52.0899 11 48.5V42.5Z" fill="url(#paint0_linear_2_38)"/>
<path d="M11 16.25C11 12.7982 13.7982 10 17.25 10H38C39.1046 10 40 10.8954 40 12V20.5C40 21.6046 39.1046 22.5 38 22.5H17.25C13.7982 22.5 11 19.7018 11 16.25Z" fill="url(#paint1_linear_2_38)"/>
<g filter="url(#filter0_d_2_38)">
<rect x="10" y="10" width="12.5" height="45" rx="6.25" fill="#1F916B" fill-opacity="0.25"/>
<rect x="10" y="26" width="12.5" height="29" rx="6.25" fill="#1F916B"/>
<rect x="10.75" y="10.75" width="11" height="11" rx="5.5" fill="#1F916B"/>
<rect x="10.75" y="10.75" width="11" height="11" rx="5.5" stroke="#FFFDF3" stroke-width="1.5"/>
</g>
<g filter="url(#filter1_d_2_38)">
<rect x="40" y="55" width="12.5" height="45" rx="6.25" transform="rotate(-180 40 55)" fill="#FA5705" fill-opacity="0.25"/>
<rect x="40" y="40" width="12.5" height="30" rx="1" transform="rotate(-180 40 40)" fill="#FA5705"/>
<rect x="39.25" y="54.25" width="11" height="11" rx="1.75" transform="rotate(-180 39.25 54.25)" fill="#FA5705"/>
<rect x="39.25" y="54.25" width="11" height="11" rx="1.75" transform="rotate(-180 39.25 54.25)" stroke="#FFFDF3" stroke-width="1.5"/>
</g>
<defs>
<filter id="filter0_d_2_38" x="0.756289" y="0.756289" width="30.9874" height="64.4874" filterUnits="userSpaceOnUse" color-interpolation-filters="sRGB">
<feFlood flood-opacity="0" result="BackgroundImageFix"/>
<feColorMatrix in="SourceAlpha" type="matrix" values="0 0 0 0 0 0 0 0 0 0 0 0 0 0 0 0 0 0 127 0" result="hardAlpha"/>
<feOffset/>
<feGaussianBlur stdDeviation="4.62186"/>
<feColorMatrix type="matrix" values="0 0 0 0 0.121569 0 0 0 0 0.568627 0 0 0 0 0.419608 0 0 0 0.36 0"/>
<feBlend mode="normal" in2="BackgroundImageFix" result="effect1_dropShadow_2_38"/>
<feBlend mode="normal" in="SourceGraphic" in2="effect1_dropShadow_2_38" result="shape"/>
</filter>
<filter id="filter1_d_2_38" x="18.2563" y="0.756288" width="30.9874" height="63.4874" filterUnits="userSpaceOnUse" color-interpolation-filters="sRGB">
<feFlood flood-opacity="0" result="BackgroundImageFix"/>
<feColorMatrix in="SourceAlpha" type="matrix" values="0 0 0 0 0 0 0 0 0 0 0 0 0 0 0 0 0 0 127 0" result="hardAlpha"/>
<feOffset/>
<feGaussianBlur stdDeviation="4.62186"/>
<feColorMatrix type="matrix" values="0 0 0 0 0.980392 0 0 0 0 0.341176 0 0 0 0 0.0196078 0 0 0 0.36 0"/>
<feBlend mode="normal" in2="BackgroundImageFix" result="effect1_dropShadow_2_38"/>
<feBlend mode="normal" in="SourceGraphic" in2="effect1_dropShadow_2_38" result="shape"/>
</filter>
<linearGradient id="paint0_linear_2_38" x1="23.75" y1="48.75" x2="27.029" y2="49.9928" gradientUnits="userSpaceOnUse">
<stop stop-color="#1F916B" stop-opacity="0.25"/>
<stop offset="1" stop-color="#FA5705" stop-opacity="0.25"/>
</linearGradient>
<linearGradient id="paint1_linear_2_38" x1="23.75" y1="16.25" x2="27.029" y2="17.4928" gradientUnits="userSpaceOnUse">
<stop stop-color="#1F916B" stop-opacity="0.25"/>
<stop offset="1" stop-color="#FA5705" stop-opacity="0.25"/>
</linearGradient>
</defs>
</svg>
