<svg width="32" height="32" viewBox="0 0 32 32" fill="none" xmlns="http://www.w3.org/2000/svg">
<path d="M15.9616 27.9103C14.9853 28.8866 13.4018 28.8866 12.4255 27.9103C11.4495 26.934 11.4495 25.3514 12.4255 24.3751L19.1862 17.6144C19.6044 17.196 19.6043 16.5181 19.1862 16.0997L17.7829 14.6964C16.8066 13.7201 16.8066 12.1366 17.7829 11.1603C18.7591 10.1843 20.3418 10.1844 21.3181 11.1603L22.7214 12.5636C25.0924 14.9346 25.0924 18.7795 22.7214 21.1505L15.9616 27.9103Z" fill="black"/>
<path d="M16.3182 9.69602C15.3419 10.6723 13.7594 10.6723 12.7831 9.69602L11.7118 8.62473C10.7355 7.64842 10.7355 6.06588 11.7118 5.08958C12.6881 4.11327 14.2706 4.11327 15.2469 5.08958L16.3182 6.16087C17.2945 7.13717 17.2945 8.71971 16.3182 9.69602Z" fill="black" fill-opacity="0.6"/>
</svg>
