<svg width="32" height="32" viewBox="0 0 32 32" fill="none" xmlns="http://www.w3.org/2000/svg">
<path d="M16.5176 5.08956C17.4939 4.11325 19.0774 4.11325 20.0537 5.08956C21.0297 6.06582 21.0297 7.64846 20.0537 8.62472L13.293 15.3855C12.8749 15.8038 12.8749 16.4817 13.293 16.9001L14.6963 18.3034C15.6726 19.2797 15.6726 20.8633 14.6963 21.8396C13.7201 22.8155 12.1374 22.8154 11.1612 21.8396L9.75783 20.4362C7.38679 18.0652 7.3868 14.2204 9.75783 11.8493L16.5176 5.08956Z" fill="black"/>
<path d="M16.161 23.3038C17.1373 22.3275 18.7199 22.3275 19.6962 23.3038L20.7674 24.3751C21.7438 25.3514 21.7438 26.934 20.7674 27.9103C19.7911 28.8866 18.2086 28.8866 17.2323 27.9103L16.161 26.839C15.1847 25.8627 15.1847 24.2801 16.161 23.3038Z" fill="black" fill-opacity="0.6"/>
</svg>
