<svg width="32" height="32" viewBox="0 0 32 32" fill="none" xmlns="http://www.w3.org/2000/svg">
<path d="M24.8769 11.6118C25.4831 11.6556 25.9614 12.1704 25.9614 12.7996C25.9613 13.4574 25.4384 13.9906 24.7931 13.9906C24.2487 13.9906 23.7922 13.6108 23.6624 13.0971L24.8769 11.6118Z" fill="black" fill-opacity="0.5"/>
<path d="M23.0465 13.851C24.1111 14.7243 24.7931 16.0628 24.7931 17.5642C24.7931 20.1957 22.7005 22.3287 20.1191 22.3289C18.9513 22.3289 17.8841 21.8915 17.0648 21.1698L23.0465 13.851Z" fill="black" fill-opacity="0.5"/>
<path d="M24.7931 24.116C24.7931 24.4449 24.5315 24.7116 24.2088 24.7116C23.8861 24.7116 23.6245 24.4449 23.6245 24.116C23.6245 23.787 23.8861 23.5203 24.2088 23.5203C24.5315 23.5203 24.7931 23.787 24.7931 24.116Z" fill="black" fill-opacity="0.6"/>
<path d="M17.7816 29C23.9774 29 29 23.88 29 17.5643C29 14.664 27.9409 12.0159 26.1954 10L12 27.3663C13.6884 28.4034 15.6667 29 17.7816 29Z" fill="black" fill-opacity="0.3"/>
<path d="M16.6133 22.3289C17.904 22.329 18.95 23.3959 18.95 24.7116C18.9499 26.0273 17.904 27.0941 16.6133 27.0943C15.3225 27.0943 14.2759 26.0274 14.2759 24.7116C14.2759 24.6663 14.2774 24.6214 14.2798 24.5768L16.0601 22.3991C16.2375 22.3551 16.4226 22.3289 16.6133 22.3289Z" fill="black" fill-opacity="0.5"/>
<path d="M17 7.40002C11.6981 7.40002 7.39999 11.6981 7.39999 17C7.39999 19.2671 8.18584 21.3506 9.5 22.9931L21.5 8.51789C20.1578 7.80433 18.6261 7.40002 17 7.40002Z" fill="black" fill-opacity="0.8"/>
<path d="M19.1333 3.13333C19.1333 4.31154 18.1782 5.26667 17 5.26667C15.8218 5.26667 14.8667 4.31154 14.8667 3.13333C14.8667 1.95513 15.8218 1 17 1C18.1782 1 19.1333 1.95513 19.1333 3.13333Z" fill="black" fill-opacity="0.6"/>
<path d="M9.53333 7.4C9.53333 8.5782 8.5782 9.53333 7.4 9.53333C6.22179 9.53333 5.26666 8.5782 5.26666 7.4C5.26666 6.22179 6.22179 5.26666 7.4 5.26666C8.5782 5.26666 9.53333 6.22179 9.53333 7.4Z" fill="black" fill-opacity="0.9"/>
<path d="M5.26667 17C5.26667 18.1782 4.31154 19.1333 3.13333 19.1333C1.95513 19.1333 1 18.1782 1 17C1 15.8218 1.95513 14.8666 3.13333 14.8666C4.31154 14.8666 5.26667 15.8218 5.26667 17Z" fill="black" fill-opacity="0.7"/>
<path d="M24.9531 2.73145C25.6535 1.87738 26.9145 1.75276 27.7686 2.45312C28.6226 3.15352 28.7472 4.41445 28.0469 5.26855L7.54688 30.2686C6.84648 31.1226 5.58555 31.2472 4.73145 30.5469C3.87738 29.8465 3.75276 28.5855 4.45312 27.7314L24.9531 2.73145Z" fill="black"/>
</svg>
