<svg width="32" height="32" viewBox="0 0 32 32" fill="none" xmlns="http://www.w3.org/2000/svg">
<path d="M30 16C30 23.732 23.732 30 16 30C8.26802 30 2 23.732 2 16C2 8.26802 8.26802 2 16 2C23.732 2 30 8.26802 30 16Z" fill="black" fill-opacity="0.3"/>
<path d="M17.4583 24.75C17.4583 26.3608 16.1525 27.6666 14.5417 27.6666C12.9308 27.6666 11.625 26.3608 11.625 24.75C11.625 23.1391 12.9308 21.8333 14.5417 21.8333C16.1525 21.8333 17.4583 23.1391 17.4583 24.75Z" fill="black" fill-opacity="0.5"/>
<path d="M26.2084 10.1666C26.2084 10.972 25.5554 11.625 24.75 11.625C23.9446 11.625 23.2917 10.972 23.2917 10.1666C23.2917 9.36122 23.9446 8.7083 24.75 8.7083C25.5554 8.7083 26.2084 9.36122 26.2084 10.1666Z" fill="black" fill-opacity="0.7"/>
<path d="M24.75 16C24.75 19.2216 22.1383 21.8333 18.9167 21.8333C15.695 21.8333 13.0833 19.2216 13.0833 16C13.0833 12.7783 15.695 10.1666 18.9167 10.1666C22.1383 10.1666 24.75 12.7783 24.75 16Z" fill="black" fill-opacity="0.4"/>
<path d="M24.75 16C24.75 18.4162 22.7913 20.375 20.375 20.375C17.9588 20.375 16 18.4162 16 16C16 13.5837 17.9588 11.625 20.375 11.625C22.7913 11.625 24.75 13.5837 24.75 16Z" fill="black" fill-opacity="0.5"/>
<path d="M24.75 24.0208C24.75 24.4235 24.4236 24.75 24.0209 24.75C23.6181 24.75 23.2917 24.4235 23.2917 24.0208C23.2917 23.6181 23.6181 23.2916 24.0209 23.2916C24.4236 23.2916 24.75 23.6181 24.75 24.0208Z" fill="black" fill-opacity="0.6"/>
<path d="M10.1667 16.7291C10.1667 17.9373 9.1873 18.9166 7.97918 18.9166C6.77105 18.9166 5.79168 17.9373 5.79168 16.7291C5.79168 15.521 6.77105 14.5416 7.97918 14.5416C9.1873 14.5416 10.1667 15.521 10.1667 16.7291Z" fill="black" fill-opacity="0.3"/>
<path d="M14.5417 9.43747C14.5417 11.451 12.9094 13.0833 10.8958 13.0833C8.88231 13.0833 7.25001 11.451 7.25001 9.43747C7.25001 7.42393 8.88231 5.79163 10.8958 5.79163C12.9094 5.79163 14.5417 7.42393 14.5417 9.43747Z" fill="black" fill-opacity="0.5"/>
</svg>
