<svg width="32" height="32" viewBox="0 0 32 32" fill="none" xmlns="http://www.w3.org/2000/svg">
<path d="M9 29H23C25.2091 29 27 27.2091 27 25V12L18 3H9C6.79086 3 5 4.79086 5 7V25C5 27.2091 6.79086 29 9 29Z" fill="black" fill-opacity="0.4"/>
<path d="M22 12H27L18 3V8C18 10.2091 19.7909 12 22 12Z" fill="black" fill-opacity="0.8"/>
<path d="M13.75 19V10C13.75 9.30964 14.3096 8.75 15 8.75C15.6904 8.75 16.25 9.30964 16.25 10V19C16.25 19.6904 15.6904 20.25 15 20.25C14.3096 20.25 13.75 19.6904 13.75 19Z" fill="black" fill-opacity="0.7"/>
<path d="M18.1162 19.1162C18.6044 18.6281 19.3956 18.6281 19.8838 19.1162C20.3719 19.6044 20.3719 20.3956 19.8838 20.8838L16.5908 24.1768C15.7122 25.0553 14.2878 25.0553 13.4092 24.1768L10.1162 20.8838C9.62806 20.3956 9.62806 19.6044 10.1162 19.1162C10.6044 18.6281 11.3956 18.6281 11.8838 19.1162L15 22.2324L18.1162 19.1162Z" fill="black" fill-opacity="0.7"/>
</svg>
