<svg width="32" height="32" viewBox="0 0 32 32" fill="none" xmlns="http://www.w3.org/2000/svg">
<path d="M3.5 23V11C3.5 7.96243 5.96243 5.5 9 5.5H13.1816C14.0101 5.5 14.6816 6.17157 14.6816 7C14.6816 7.82843 14.0101 8.5 13.1816 8.5H9C7.61929 8.5 6.5 9.61929 6.5 11V23C6.5 24.3807 7.61929 25.5 9 25.5H21C22.3807 25.5 23.5 24.3807 23.5 23V18.8184C23.5 17.9899 24.1716 17.3184 25 17.3184C25.8284 17.3184 26.5 17.9899 26.5 18.8184V23C26.5 26.0376 24.0376 28.5 21 28.5H9C5.96243 28.5 3.5 26.0376 3.5 23Z" fill="black" fill-opacity="0.3"/>
<path d="M25.0001 3.5C26.9331 3.50006 28.5001 5.06704 28.5001 7V13.5C28.5001 14.3284 27.8285 14.9999 27.0001 15C26.1717 15 25.5001 14.3284 25.5001 13.5V8.62109L12.0607 22.0605C11.4749 22.6463 10.5254 22.6463 9.93957 22.0605C9.35378 21.4748 9.35378 20.5252 9.93957 19.9395L23.379 6.5H18.5001C17.6717 6.5 17.0001 5.82843 17.0001 5C17.0001 4.17157 17.6717 3.5 18.5001 3.5H25.0001Z" fill="black" fill-opacity="0.7"/>
</svg>
