<svg width="32" height="32" viewBox="0 0 32 32" fill="none" xmlns="http://www.w3.org/2000/svg">
<path d="M15.5005 2H10.7502C8.12674 2 6 4.08931 6 6.66662C6 9.24392 8.12674 11.3332 10.7502 11.3332H15.5005V2Z" fill="black" fill-opacity="0.8"/>
<path d="M15.5005 11.3332H10.7502C8.12674 11.3332 6 13.4223 6 15.9996C6 18.577 8.12674 20.6663 10.7502 20.6663H15.5005V11.3332Z" fill="black" fill-opacity="0.6"/>
<path d="M25 15.9996C25 18.577 22.8732 20.6663 20.2497 20.6663C17.6263 20.6663 15.4995 18.577 15.4995 15.9996C15.4995 13.4223 17.6263 11.333 20.2497 11.333C22.8732 11.333 25 13.4223 25 15.9996Z" fill="black"/>
<path d="M10.7502 20.6663H15.5005V25.3333C15.5005 27.9107 13.3737 30 10.7502 30C8.12674 30 6 27.9107 6 25.3333C6 22.7561 8.12674 20.6663 10.7502 20.6663Z" fill="black" fill-opacity="0.5"/>
<path d="M15.4995 2H20.2497C22.8732 2 25 4.08931 25 6.66662C25 9.24392 22.8732 11.333 20.2497 11.333L15.4995 11.3332V2Z" fill="black" fill-opacity="0.9"/>
</svg>
