<svg width="32" height="32" viewBox="0 0 32 32" fill="none" xmlns="http://www.w3.org/2000/svg">
<path d="M25.6 16C25.6 21.3019 21.3019 25.6 16 25.6C10.6981 25.6 6.4 21.3019 6.4 16C6.4 10.6981 10.6981 6.4 16 6.4C21.3019 6.4 25.6 10.6981 25.6 16Z" fill="black" fill-opacity="0.8"/>
<path d="M18.1333 2.13333C18.1333 3.31154 17.1782 4.26667 16 4.26667C14.8218 4.26667 13.8667 3.31154 13.8667 2.13333C13.8667 0.955126 14.8218 0 16 0C17.1782 0 18.1333 0.955126 18.1333 2.13333Z" fill="black" fill-opacity="0.6"/>
<path d="M18.1333 29.8667C18.1333 31.0449 17.1782 32 16 32C14.8218 32 13.8667 31.0449 13.8667 29.8667C13.8667 28.6885 14.8218 27.7333 16 27.7333C17.1782 27.7333 18.1333 28.6885 18.1333 29.8667Z" fill="black" fill-opacity="0.7"/>
<path d="M8.53333 6.4C8.53333 7.57821 7.57821 8.53333 6.4 8.53333C5.22179 8.53333 4.26667 7.57821 4.26667 6.4C4.26667 5.22179 5.22179 4.26667 6.4 4.26667C7.57821 4.26667 8.53333 5.22179 8.53333 6.4Z" fill="black" fill-opacity="0.9"/>
<path d="M8.53333 25.6C8.53333 26.7782 7.57821 27.7333 6.4 27.7333C5.22179 27.7333 4.26667 26.7782 4.26667 25.6C4.26667 24.4218 5.22179 23.4667 6.4 23.4667C7.57821 23.4667 8.53333 24.4218 8.53333 25.6Z" fill="black" fill-opacity="0.2"/>
<path d="M27.7333 6.4C27.7333 7.57821 26.7782 8.53333 25.6 8.53333C24.4218 8.53333 23.4667 7.57821 23.4667 6.4C23.4667 5.22179 24.4218 4.26667 25.6 4.26667C26.7782 4.26667 27.7333 5.22179 27.7333 6.4Z" fill="black" fill-opacity="0.3"/>
<path d="M27.7333 25.6C27.7333 26.7782 26.7782 27.7333 25.6 27.7333C24.4218 27.7333 23.4667 26.7782 23.4667 25.6C23.4667 24.4218 24.4218 23.4667 25.6 23.4667C26.7782 23.4667 27.7333 24.4218 27.7333 25.6Z" fill="black" fill-opacity="0.4"/>
<path d="M4.26667 16C4.26667 17.1782 3.31154 18.1333 2.13333 18.1333C0.955126 18.1333 0 17.1782 0 16C0 14.8218 0.955126 13.8667 2.13333 13.8667C3.31154 13.8667 4.26667 14.8218 4.26667 16Z" fill="black" fill-opacity="0.7"/>
<path d="M32 16C32 17.1782 31.0449 18.1333 29.8667 18.1333C28.6885 18.1333 27.7333 17.1782 27.7333 16C27.7333 14.8218 28.6885 13.8667 29.8667 13.8667C31.0449 13.8667 32 14.8218 32 16Z" fill="black" fill-opacity="0.5"/>
</svg>
